<svg width="108" height="107" viewBox="0 0 108 107" fill="none" xmlns="http://www.w3.org/2000/svg">
<circle cx="53.8117" cy="53.4392" r="52.1882" stroke="#0B3F36" stroke-width="2.31947" stroke-dasharray="4.64 4.64"/>
<path d="M43.4038 58.5308C43.4038 59.8473 43.0873 61.0118 42.4544 62.0244C41.8215 63.0244 40.9924 63.8408 39.9672 64.4737C38.9419 65.1066 37.828 65.5623 36.6254 65.8408L36.7394 68.7268L32.3914 69.1066L32.7901 66.0117C31.6129 65.8345 30.4927 65.4864 29.4294 64.9674C28.3661 64.4358 27.5813 63.8535 27.075 63.2206L27.5117 57.5435L30.1699 57.9422L31.1192 61.8725C31.423 62.3029 31.8281 62.6763 32.3344 62.9928C32.8534 63.2966 33.4103 63.4927 34.0052 63.5814L34.2711 56.2524C32.8407 55.4929 31.6825 54.822 30.7964 54.2398C29.9104 53.6575 29.1446 52.9107 28.499 51.9993C27.8661 51.0879 27.5497 50.0183 27.5497 48.7905C27.5497 47.4614 27.8345 46.3095 28.4041 45.3349C28.9737 44.3476 29.7458 43.5564 30.7205 42.9615C31.7078 42.3666 32.8217 41.9615 34.0622 41.7463L33.8534 39.2401L38.1444 38.7654L37.6507 41.7274C39.0684 41.9552 40.4355 42.4805 41.7519 43.3033C41.714 44.0121 41.638 45.0437 41.5241 46.3982C41.4228 47.7526 41.3469 48.7272 41.2962 49.3221L38.714 48.9234L38.1064 45.183C37.9799 45.0058 37.752 44.8286 37.4229 44.6514C37.0938 44.4615 36.733 44.3033 36.3406 44.1767L36.0938 50.8791C36.2837 50.9803 36.4546 51.0753 36.6065 51.1639C36.771 51.2398 36.9166 51.3094 37.0432 51.3727C38.4102 52.0816 39.5115 52.7208 40.3469 53.2904C41.195 53.86 41.9165 54.5815 42.5114 55.4549C43.1063 56.3157 43.4038 57.341 43.4038 58.5308ZM32.2584 46.664C32.2584 47.3602 32.4673 47.9804 32.885 48.5247C33.3154 49.0563 33.923 49.5753 34.7078 50.0816L34.9546 43.9298C34.1698 43.9298 33.5242 44.1577 33.0179 44.6134C32.5116 45.0691 32.2584 45.7526 32.2584 46.664ZM35.4862 63.5624C36.347 63.4105 37.0685 63.0497 37.6507 62.4801C38.233 61.9105 38.5241 61.151 38.5241 60.2017C38.5241 59.5941 38.2836 59.0498 37.8026 58.5688C37.3343 58.0751 36.6444 57.5688 35.7331 57.0498L35.4862 63.5624ZM50.0492 66.3914C51.6695 66.3914 53.2264 66.056 54.72 65.3851C56.2137 64.7142 57.4225 63.7902 58.3465 62.613C59.2706 61.4358 59.7326 60.1257 59.7326 58.6827C59.7326 57.3157 59.4098 56.0815 58.7642 54.9803C58.1313 53.8664 57.0997 52.9676 55.6694 52.2841C54.2517 51.5879 52.4099 51.2019 50.1442 51.1259L50.5999 47.8601L58.0427 47.5943L58.7073 42.9235L49.0429 43.4931L46.7455 55.0372C48.5303 55.1005 50.0366 55.3727 51.2644 55.8537C52.5049 56.3347 53.4289 56.9802 54.0365 57.7903C54.6567 58.6004 54.9669 59.5245 54.9669 60.5624C54.9669 61.2839 54.8023 61.9105 54.4732 62.4421C54.1567 62.9738 53.7264 63.3788 53.1821 63.6573C52.6378 63.9358 52.0429 64.075 51.3973 64.075C50.2961 64.075 49.4796 63.7459 48.948 63.0877L48.3594 58.4549L46.1189 57.9232L45.1316 64.9104C46.2835 65.8978 47.9227 66.3914 50.0492 66.3914ZM70.1754 66.1826C71.6184 66.1826 72.9728 65.8092 74.2386 65.0623C75.5171 64.3155 76.5677 63.075 77.3905 61.3409C78.2132 59.6068 78.6246 57.3536 78.6246 54.5815C78.6246 50.4677 77.8715 47.4741 76.3652 45.6007C74.8715 43.7273 72.8842 42.7906 70.4033 42.7906C68.9096 42.7906 67.5046 43.1957 66.1882 44.0058C64.8844 44.8032 63.8148 46.088 62.9794 47.8601C62.1566 49.6196 61.7452 51.8601 61.7452 54.5815C61.7452 58.8599 62.53 61.8662 64.0996 63.6003C65.6818 65.3218 67.7071 66.1826 70.1754 66.1826ZM70.0995 45.5058C70.821 45.5058 71.3779 45.8032 71.7703 46.3982C72.1627 46.9931 72.4412 47.9361 72.6057 49.2272C72.7703 50.5057 72.8526 52.2525 72.8526 54.4676C72.8526 56.6574 72.7766 58.4169 72.6247 59.746C72.4728 61.0624 72.2133 62.0434 71.8463 62.689C71.4792 63.3345 70.9729 63.6573 70.3273 63.6573C69.5678 63.6573 68.9856 63.3409 68.5805 62.708C68.1755 62.0751 67.897 61.1131 67.7451 59.8219C67.5932 58.5308 67.5172 56.765 67.5172 54.5246C67.5172 52.2968 67.5932 50.5373 67.7451 49.2462C67.897 47.9551 68.1565 47.0121 68.5235 46.4171C68.9033 45.8096 69.4286 45.5058 70.0995 45.5058Z" fill="#0B3F36"/>
</svg>
