<svg width="108" height="107" viewBox="0 0 108 107" fill="none" xmlns="http://www.w3.org/2000/svg">
<circle cx="53.8117" cy="53.4392" r="52.1882" stroke="#0B3F36" stroke-width="2.31947" stroke-dasharray="4.64 4.64"/>
<path d="M43.4038 58.5308C43.4038 59.8473 43.0873 61.0118 42.4544 62.0244C41.8215 63.0244 40.9924 63.8408 39.9672 64.4737C38.9419 65.1066 37.828 65.5623 36.6254 65.8408L36.7394 68.7268L32.3914 69.1066L32.7901 66.0117C31.6129 65.8345 30.4927 65.4864 29.4294 64.9674C28.3661 64.4358 27.5813 63.8535 27.075 63.2206L27.5117 57.5435L30.1699 57.9422L31.1192 61.8725C31.423 62.3029 31.8281 62.6763 32.3344 62.9928C32.8534 63.2966 33.4103 63.4927 34.0052 63.5814L34.2711 56.2524C32.8407 55.4929 31.6825 54.822 30.7964 54.2398C29.9104 53.6575 29.1446 52.9107 28.499 51.9993C27.8661 51.0879 27.5497 50.0183 27.5497 48.7905C27.5497 47.4614 27.8345 46.3095 28.4041 45.3349C28.9737 44.3476 29.7458 43.5564 30.7205 42.9615C31.7078 42.3666 32.8217 41.9615 34.0622 41.7463L33.8534 39.2401L38.1444 38.7654L37.6507 41.7274C39.0684 41.9552 40.4355 42.4805 41.7519 43.3033C41.714 44.0121 41.638 45.0437 41.5241 46.3982C41.4228 47.7526 41.3469 48.7272 41.2962 49.3221L38.714 48.9234L38.1064 45.183C37.9799 45.0058 37.752 44.8286 37.4229 44.6514C37.0938 44.4615 36.733 44.3033 36.3406 44.1767L36.0938 50.8791C36.2837 50.9803 36.4546 51.0753 36.6065 51.1639C36.771 51.2398 36.9166 51.3094 37.0432 51.3727C38.4102 52.0816 39.5115 52.7208 40.3469 53.2904C41.195 53.86 41.9165 54.5815 42.5114 55.4549C43.1063 56.3157 43.4038 57.341 43.4038 58.5308ZM32.2584 46.664C32.2584 47.3602 32.4673 47.9804 32.885 48.5247C33.3154 49.0563 33.923 49.5753 34.7078 50.0816L34.9546 43.9298C34.1698 43.9298 33.5242 44.1577 33.0179 44.6134C32.5116 45.0691 32.2584 45.7526 32.2584 46.664ZM35.4862 63.5624C36.347 63.4105 37.0685 63.0497 37.6507 62.4801C38.233 61.9105 38.5241 61.151 38.5241 60.2017C38.5241 59.5941 38.2836 59.0498 37.8026 58.5688C37.3343 58.0751 36.6444 57.5688 35.7331 57.0498L35.4862 63.5624ZM55.0998 59.3283V62.8219L50.5049 63.9611L50.41 65.6889H63.8338L64.0236 63.7333L59.9225 62.8788V59.3852H64.4603L64.7641 56.2524H59.9225V52.7208C59.9225 51.05 59.9414 49.3095 59.9794 47.4994C60.0174 45.6893 60.068 44.1957 60.1313 43.0185L58.3275 42.5438L45.1506 57.1638L45.6063 59.3283H55.0998ZM55.0618 49.2652V56.2524H49.8973L55.0618 49.2652ZM71.4665 66.3914C73.0867 66.3914 74.6437 66.056 76.1373 65.3851C77.631 64.7142 78.8398 63.7902 79.7638 62.613C80.6879 61.4358 81.1499 60.1257 81.1499 58.6827C81.1499 57.3157 80.8271 56.0815 80.1815 54.9803C79.5486 53.8664 78.517 52.9676 77.0867 52.2841C75.669 51.5879 73.8272 51.2019 71.5615 51.1259L72.0171 47.8601L79.46 47.5943L80.1246 42.9235L70.4602 43.4931L68.1628 55.0372C69.9476 55.1005 71.4539 55.3727 72.6817 55.8537C73.9222 56.3347 74.8462 56.9802 75.4538 57.7903C76.074 58.6004 76.3842 59.5245 76.3842 60.5624C76.3842 61.2839 76.2196 61.9105 75.8905 62.4421C75.574 62.9738 75.1437 63.3788 74.5994 63.6573C74.0551 63.9358 73.4602 64.075 72.8146 64.075C71.7134 64.075 70.8969 63.7459 70.3653 63.0877L69.7767 58.4549L67.5362 57.9232L66.5489 64.9104C67.7008 65.8978 69.34 66.3914 71.4665 66.3914Z" fill="#0B3F36"/>
</svg>
